<?xml version="1.0" encoding="UTF-8" standalone="no"?>
<svg
   xmlns:dc="http://purl.org/dc/elements/1.1/"
   xmlns:cc="http://creativecommons.org/ns#"
   xmlns:rdf="http://www.w3.org/1999/02/22-rdf-syntax-ns#"
   xmlns:svg="http://www.w3.org/2000/svg"
   xmlns="http://www.w3.org/2000/svg"
   xmlns:sodipodi="http://sodipodi.sourceforge.net/DTD/sodipodi-0.dtd"
   xmlns:inkscape="http://www.inkscape.org/namespaces/inkscape"
   height="50"
   width="50"
   viewBox="0 0 50 50"
   id="svg2"
   version="1.1"
   inkscape:version="0.91 r13725"
   sodipodi:docname="female-icon.svg">
  <metadata
     id="metadata13">
    <rdf:RDF>
      <cc:Work
         rdf:about="">
        <dc:format>image/svg+xml</dc:format>
        <dc:type
           rdf:resource="http://purl.org/dc/dcmitype/StillImage" />
        <dc:title></dc:title>
      </cc:Work>
    </rdf:RDF>
  </metadata>
  <defs
     id="defs11" />
  <sodipodi:namedview
     pagecolor="#ffffff"
     bordercolor="#666666"
     borderopacity="1"
     objecttolerance="10"
     gridtolerance="10"
     guidetolerance="10"
     inkscape:pageopacity="0"
     inkscape:pageshadow="2"
     inkscape:window-width="1920"
     inkscape:window-height="1137"
     id="namedview9"
     showgrid="false"
     fit-margin-top="1"
     fit-margin-left="1"
     fit-margin-right="1"
     fit-margin-bottom="1"
     inkscape:zoom="4.9166667"
     inkscape:cx="25"
     inkscape:cy="25"
     inkscape:window-x="-8"
     inkscape:window-y="-8"
     inkscape:window-maximized="1"
     inkscape:current-layer="g4" />
  <g
     id="g4"
     transform="translate(1,1)">
    <circle
       cy="24"
       cx="24"
       id="ellipse6"
       r="24"
       style="fill:#263238;fill-opacity:1" />
    <path
       id="path1"
       transform="matrix(0.81252518,0,0,0.81252518,16.065285,11)"
       d="m 9.7524976,2.8294517 c -1.7652488,2e-7 -3.5429965,0.6759889 -4.8949934,2.0279657 -2.7039937,2.6039648 -2.7039937,7.0108966 0,9.7148666 2.7039943,2.703954 7.0109988,2.703954 9.7149938,0 2.704008,-2.603965 2.704008,-7.0108971 0,-9.7148666 C 13.270496,3.5054406 11.517746,2.8294519 9.7524976,2.8294517 Z M 9.7654999,0 c 2.5040011,0 5.0080011,0.95148566 6.9110001,2.8544572 3.806,3.8059421 3.806,10.0148478 0,13.8207908 -1.602996,1.502968 -3.505995,2.403955 -5.408994,2.704962 l 0,3.304943 3.605987,0 0,3.103956 -3.605987,0 0,6.2099 -3.2050004,0 0,-6.2099 -3.3050075,0 0,-3.103956 3.3050075,0 0,-3.304943 C 6.1595062,19.079203 4.3564976,18.178216 2.8544987,16.675248 -0.95149958,12.869305 -0.95149958,6.6603993 2.8544987,2.8544572 4.7574981,0.95148566 7.2614993,0 9.7654999,0 Z"
       inkscape:connector-curvature="0"
       style="fill:#f7f7f7" />
  </g>
</svg>
