<?xml version="1.0" encoding="utf-8"?>
<svg xmlns="http://www.w3.org/2000/svg">
  <g transform="translate(50,50)">
    <ellipse cy="64" cx="64" ry="64" rx="64" fill="#524444" />
    <g transform="translate(30,37.5331234926661)">
      <path id="path1" height="68" width="68" transform="rotate(0,34,26.4668765073339) translate(0,0) scale(1.06250006701961,1.06250006701961)  " fill="#F8F8F8" d="M31.366999,22.073001C26.640179,22.073001 22.807999,25.904956 22.807999,30.631501 22.807999,35.359345 26.640179,39.190003 31.366999,39.190003 36.093619,39.190003 39.925999,35.359345 39.925999,30.631501 39.925999,25.904956 36.093619,22.073001 31.366999,22.073001z M25.398512,8.9634891L25.418303,8.9755206C26.198765,9.5031605,26.712,10.396494,26.712,11.408826L26.712,14.342001 37.825001,14.342001 37.825001,11.408826C37.825001,10.396494,38.337742,9.5031605,39.117741,8.9755206L39.13752,8.9634891z M12.332192,0L14.704592,0 49.303498,0 51.675896,0C63.7123,2.1015892 63.999997,15.872167 63.999997,15.872168 62.692898,19.512814 59.052197,19.04662 59.052197,19.04662L50.182396,17.364245C46.635495,15.590971 47.195397,12.603915 47.195397,12.603915 46.167996,9.7107978 43.179795,8.9634886 43.179795,8.9634891L42.378197,8.9634891 42.397984,8.9755206C43.178296,9.5031605,43.690999,10.396494,43.690999,11.408826L43.690999,15.412457 43.9865,15.635566C56.790867,25.434855,59.197999,35.601808,59.197999,35.601808L59.197999,42.963862C57.265835,48.669503,52.940411,48.762002,52.940411,48.762002L50.003998,48.762002 50.003998,49.820001 46.551999,49.820001 46.551999,48.762002 17.147999,48.762002 17.147999,49.820001 13.697999,49.820001 13.697999,48.762002 11.618173,48.762002C5.0844469,47.289392,5.5439879,41.767152,5.5439889,41.767152L5.5439889,35.692908C6.6920378,27.987967,18.278689,17.58326,20.799535,15.399404L20.843999,15.360992 20.843999,11.408826C20.843999,10.396494,21.357273,9.5031605,22.13774,8.9755206L22.15753,8.9634891 20.828193,8.9634891C20.828193,8.9634886 17.839892,9.7107978 16.812592,12.603915 16.812592,12.603915 17.372392,15.590971 13.825592,17.364245L4.9557016,19.04662C4.9557008,19.04662 1.3152504,19.512814 0.0078735352,15.872168 0.0078721046,15.872167 -0.73960972,3.1745138 12.332192,0z" />
    </g>
  </g>
</svg>

