<?xml version="1.0" encoding="utf-8"?>
<svg xmlns="http://www.w3.org/2000/svg">
  <g transform="translate(50,50)">
    <ellipse cy="64" cx="64" ry="64" rx="64" fill="#524444" />
    <g transform="translate(46.0196929067936,30)">
      <path id="path1" height="68" width="68" transform="rotate(0,17.9803070932065,34) translate(0,0) scale(0.080188679245283,0.080188679245283)  " fill="#F8F8F8" d="M198.273,749.162C187.685,749.162,179.084,759.475,179.084,772.21L179.084,786.641C179.084,799.422,187.685,809.734,198.273,809.734L252.258,809.734C262.827,809.734,271.446,799.422,271.446,786.641L271.446,772.21C271.446,759.475,262.827,749.162,252.258,749.162z M37.3278,104.758L37.3278,710.654 407.075,710.654 407.075,104.758z M144.643,34.4351C139.64,34.4351 135.592,38.6903 135.592,43.9447 135.592,49.2143 139.64,53.4543 144.643,53.4543L311.697,53.4543C316.68,53.4543 320.71,49.2143 320.71,43.9447 320.71,38.6903 316.68,34.4351 311.697,34.4351z M49.6394,0L398.793,0C426.188,3E-06,448.45,23.3807,448.45,52.2583L448.45,795.757C448.45,824.635,426.188,848,398.793,848L49.6394,848C22.2243,848,-3E-06,824.635,0,795.757L0,52.2583C-3E-06,23.3807,22.2243,3E-06,49.6394,0z" />
    </g>
  </g>
</svg>

