<?xml version="1.0" encoding="utf-8"?>
<svg xmlns="http://www.w3.org/2000/svg" height="48" width="48" viewBox="0 0 48 48">
  <g>
    <ellipse cy="24" cx="24" ry="24" rx="24" fill="#A14949" />
    <path id="path1" transform="rotate(0,24,24) translate(11,12.4357500216609) scale(0.812296359629118,0.812296359629118)  " fill="#F7F7F7" d="M29.914012,20.641977L31.596014,21.722978 27.257011,28.472982 25.57501,27.391983z M27.357023,19.030985L29.039024,20.111987 24.700019,26.861991 23.018018,25.780992z M4.3349901,4.5480086L26.483999,18.496005 25.417989,20.188998 4.945982,7.2960246 2.7730096,10.676029 23.228996,23.559022 22.162986,25.251009 0,11.292026z M26.323419,0.0009970665C26.644144,-0.013338566 26.965795,0.12720728 27.171428,0.40408087 27.50144,0.84507871 27.411436,1.4690757 26.97142,1.8000736 26.695411,2.0110729 26.419401,2.3830709 26.433403,2.5230703 26.437402,2.5590701 26.543405,2.7370691 26.983421,2.9600681 30.890556,4.1730619 30.878557,5.3700558 30.875557,5.7650537 30.868557,6.5280499 30.302536,7.0750473 29.193498,7.3920455 28.606477,7.5500448 27.704446,7.9630427 27.490438,8.3420408 27.458438,8.4000404 27.458438,8.4250402 27.473438,8.4790399L27.506439,8.6440392 27.506439,8.6430392C27.513439,8.6430392 27.724447,9.3110356 29.027492,9.9860325 29.076494,10.008032 31.112564,10.978027 31.790588,13.173016 32.265605,14.713008 31.961593,16.413 30.885557,18.225991 30.698551,18.540989 30.366539,18.715988 30.024526,18.715988 29.850521,18.715988 29.674514,18.670989 29.514509,18.575989 29.040493,18.293991 28.883487,17.680994 29.165496,17.205996 29.941524,15.899003 30.181531,14.740008 29.878521,13.763013 29.466507,12.42802 28.158462,11.786023 28.144462,11.780023 26.037387,10.688029 25.619375,9.4070354 25.536371,8.9770374 25.390365,8.4220402 25.463369,7.8630431 25.750379,7.3570454 26.303398,6.3780507 27.53844,5.8350534 28.231464,5.5960547 27.711446,5.3410559 26.998422,5.0570574 26.319398,4.8480583L26.177393,4.7930589C24.846347,4.150062 24.499336,3.3070662 24.442333,2.7130694 24.310329,1.3300762 25.623375,0.31008148 25.772378,0.19808197 25.938884,0.073957443 26.130985,0.009598732 26.323419,0.0009970665z" />
  </g>
</svg>

