<?xml version="1.0" encoding="utf-8"?>
<svg xmlns="http://www.w3.org/2000/svg">
  <g transform="translate(50,50)">
    <rect height="128" width="128" fill="#524444" />
    <g transform="translate(32.9407901281756,30)">
      <path id="path1" height="68" width="68" transform="rotate(0,31.0592098718244,34) translate(0,0) scale(1.59045551387989,1.59045551387989)  " fill="#F8F8F8" d="M12.958946,23.919047L26.098054,23.919047C33.257403,23.919047 39.056998,29.429058 39.056998,36.229046 39.056998,38.625042 38.337085,40.862041 37.087184,42.755047L1.9798254,42.755047C0.72992341,40.862041 1.3298995E-07,38.625042 0,36.229046 1.3298995E-07,29.429058 5.7995947,23.919047 12.958946,23.919047z M19.651387,0C25.072244,0 29.472939,4.3980007 29.472939,9.8230019 29.472939,15.247003 25.072244,19.646004 19.651387,19.646004 14.230529,19.646004 9.8298329,15.247003 9.8298329,9.8230019 9.8298329,4.3980007 14.230529,0 19.651387,0z" />
    </g>
  </g>
</svg>

